<svg width="60" height="60" viewBox="0 0 60 60" fill="none" xmlns="http://www.w3.org/2000/svg">
<g id="SVG" clip-path="url(#clip0_0_184)">
<g id="Group">
<path id="Vector" d="M2.4667 13.2969C2.33951 11.8552 2.42353 10.4026 2.71612 8.98521C3.10759 7.21975 3.87631 5.75417 5.00047 4.63041C6.57567 3.05399 8.79093 2.18999 11.5762 2.06206C12.9253 2.01141 14.276 2.10349 15.6057 2.33675L15.9598 0.323002C14.4851 0.064242 12.987 -0.0374776 11.4908 0.019548C8.17174 0.172759 5.50155 1.23736 3.55545 3.18509C2.14974 4.59029 1.19506 6.39495 0.718951 8.55106C0.718133 8.55505 0.716904 8.55945 0.716086 8.56334C0.381376 10.1783 0.285207 11.8336 0.430644 13.4764L2.4667 13.2969ZM6.94994 26.6542C6.33423 25.5308 5.7697 24.4018 5.27158 23.2976L3.40818 24.1384C3.92789 25.2901 4.51638 26.4674 5.15767 27.6368L6.94994 26.6542ZM1.02496 17.2468C1.28129 18.3421 1.59275 19.4237 1.95815 20.4875L3.89268 19.8267C3.54951 18.8284 3.25704 17.8133 3.0164 16.7855L1.02496 17.2468ZM14.9325 37.9118C14.8433 37.8099 14.7545 37.7087 14.6662 37.6068L13.1234 38.9472C13.2138 39.0516 13.3046 39.1559 13.3965 39.2602C13.9224 39.8588 14.4577 40.4493 15.002 41.0313C15.2478 41.2938 15.4954 41.5546 15.7448 41.8137L17.2181 40.3965C16.4377 39.5854 15.6757 38.757 14.9325 37.9118ZM10.6536 35.9437L12.2671 34.6891C12.1192 34.4985 11.9723 34.3072 11.8265 34.115C11.2108 33.3056 10.6139 32.4821 10.0363 31.6451L8.3532 32.8053C8.94876 33.6682 9.56419 34.5172 10.199 35.3516C10.3492 35.55 10.5008 35.7474 10.6536 35.9437ZM17.4834 43.5639C19.4145 45.4484 21.4467 47.2265 23.5709 48.8903C26.4517 51.1576 29.5266 53.1666 32.7601 54.8939C34.6487 55.8992 36.6059 56.7701 38.617 57.5001L36.75 58.0347L37.3121 60L42.5389 58.5044C43.0814 58.3493 43.3952 57.7832 43.2401 57.2403L41.8782 52.4797L39.9124 53.0417L40.7783 56.066C38.3381 55.294 35.9749 54.2972 33.7189 53.0885C30.5923 51.4181 27.619 49.4754 24.8337 47.2828C22.767 45.6642 20.7898 43.9346 18.9108 42.1015L17.4834 43.5639ZM59.3608 43.8982C58.9434 41.2907 58.081 38.4859 56.7973 35.5615L54.9255 36.383C56.1393 39.1483 56.952 41.7861 57.3419 44.2208C58.0734 48.792 57.2699 52.3977 55.0186 54.6497C53.9037 55.7646 52.4536 56.5291 50.7085 56.9225C49.2977 57.2398 47.6982 57.3155 45.9531 57.1483C45.5229 57.1071 45.0791 57.05 44.6338 56.9796L44.3147 58.9986C44.8001 59.0753 45.2859 59.1372 45.758 59.1828C46.4228 59.2464 47.0705 59.2784 47.7009 59.2784C48.8631 59.2853 50.0225 59.1639 51.1579 58.9162C53.2864 58.4361 55.0714 57.4869 56.4639 56.0945C59.198 53.3603 60.1996 49.1434 59.3608 43.8982ZM54.4054 30.828L52.6296 31.8402C53.1137 32.6888 53.5738 33.551 54.0092 34.4256L55.8401 33.5169C55.388 32.6069 54.9095 31.7102 54.4054 30.828ZM49.6607 23.7226L48.0368 24.9643C48.8014 25.9645 49.5387 26.9853 50.248 28.0254L51.9375 26.8745C51.2071 25.8035 50.4479 24.7526 49.6607 23.7226ZM44.6074 17.8149L43.1294 19.2262C43.9986 20.1371 44.8429 21.0714 45.6613 22.0282L47.2149 20.6998C46.3719 19.7148 45.5025 18.7528 44.6074 17.8149ZM19.2778 7.19212L21.2766 6.76483L20.6166 3.67727C22.4926 4.34273 24.3177 5.1439 26.0773 6.07441C29.1633 7.70361 32.1007 9.59998 34.8559 11.7418C36.1547 12.7441 37.4632 13.8318 38.7446 14.9741C39.7874 15.9058 40.804 16.8666 41.7929 17.8553L43.2381 16.4101C42.925 16.0969 42.6092 15.7865 42.2906 15.4789C41.5757 14.788 40.8474 14.111 40.1062 13.4484C38.7885 12.2743 37.4424 11.1552 36.1084 10.1259C34.8091 9.1155 33.4637 8.15846 32.0837 7.2525C32.8537 6.8176 33.6349 6.40275 34.4264 6.00839L33.517 4.17774C32.5999 4.63277 31.6635 5.13406 30.7344 5.66656L31.3837 6.79952C29.9678 5.8975 28.5163 5.05261 27.0328 4.26688C25.7118 3.56954 24.3556 2.94105 22.9697 2.38393L24.7708 1.99932L24.3446 0L19.0287 1.13624C18.8975 1.16425 18.773 1.21784 18.6625 1.29396C18.5519 1.37008 18.4575 1.46723 18.3845 1.57986C18.3115 1.69249 18.2614 1.8184 18.2371 1.9504C18.2128 2.08239 18.2147 2.21788 18.2427 2.34913L19.2778 7.19212ZM0.323386 44.0581C0.0645826 45.5329 -0.0369669 47.031 0.0204439 48.5273C0.172734 51.8459 1.23733 54.5157 3.18548 56.4631C4.59068 57.8688 6.39656 58.8226 8.55145 59.2984C8.55554 59.2987 8.55984 59.3 8.56465 59.3008C9.69182 59.5347 10.84 59.6526 11.9912 59.6525C12.4865 59.6525 12.9819 59.631 13.4768 59.5874L13.2973 57.5505C11.8556 57.6783 10.4029 57.5942 8.98559 57.3006C7.21973 56.9104 5.75455 56.1425 4.6308 55.0178C3.05478 53.4419 2.19047 51.2262 2.06254 48.4417C2.01149 47.0924 2.10354 45.7415 2.33713 44.4116L0.323386 44.0581ZM24.1387 56.6094C25.2913 56.0901 26.4682 55.5008 27.6368 54.8603L26.655 53.0681C25.532 53.6833 24.4026 54.2482 23.298 54.746L24.1387 56.6094ZM17.2472 58.9929C18.3425 58.7367 19.4241 58.4253 20.4879 58.0598L19.827 56.1249C18.8287 56.4681 17.8137 56.7607 16.7859 57.0016L17.2472 58.9929ZM37.6075 45.351L38.9472 46.895C39.0522 46.8043 39.1569 46.7131 39.2611 46.6215C39.8594 46.0952 40.4498 45.56 41.0321 45.016C41.2947 44.77 41.5557 44.5223 41.8149 44.2728L40.3972 42.8C40.1452 43.043 39.8912 43.284 39.6353 43.5228C39.069 44.0526 38.4944 44.5735 37.9118 45.0852C37.8107 45.1742 37.7094 45.2631 37.6075 45.351Z" fill="#06D889"/>
<path id="Vector_2" d="M31.6455 49.9806L32.8057 51.6641C33.6688 51.0689 34.5179 50.4536 35.3524 49.8187C35.5504 49.6683 35.7476 49.5168 35.944 49.3641L34.6896 47.7498C33.6966 48.5226 32.6815 49.2666 31.6455 49.9806ZM44.2212 2.67537C48.792 1.94462 52.3981 2.74783 54.6501 4.99943C55.7642 6.11356 56.5292 7.564 56.9229 9.30909C57.2398 10.7204 57.3163 12.3203 57.1483 14.065C57.1076 14.4943 57.0511 14.9377 56.98 15.3839L58.999 15.7032C59.0757 15.2164 59.1376 14.7306 59.1832 14.26C59.3712 12.2999 59.2816 10.4833 58.9166 8.8601C58.4369 6.73162 57.4878 4.9458 56.0953 3.55339C53.3608 0.819231 49.1426 -0.182628 43.8986 0.656911C41.2924 1.07387 38.4867 1.93664 35.5619 3.21995L36.3834 5.09215C39.1488 3.87834 41.7857 3.0651 44.2212 2.67537ZM22.0279 14.3564L20.699 12.8033C19.7144 13.6461 18.7526 14.5152 17.8145 15.4095L19.2262 16.8883C20.137 16.0191 21.0713 15.1749 22.0279 14.3564ZM28.0264 9.76995L26.8745 8.08054C25.8038 8.81113 24.7529 9.57032 23.7229 10.3573L24.9647 11.9812C25.9648 11.2163 26.9858 10.4789 28.0264 9.76995ZM58.5048 17.4796C58.3497 16.9366 57.7836 16.6228 57.2411 16.778L52.48 18.1404L53.0422 20.1057L56.067 19.2402C55.2943 21.6803 54.2972 24.0435 53.0885 26.2997C51.4181 29.4263 49.4754 32.3995 47.2828 35.1849C45.6641 37.2514 43.9343 39.2285 42.1011 41.1073L43.5639 42.535C45.4483 40.6038 47.2264 38.5716 48.8903 36.4475C51.1577 33.5669 53.1667 30.4919 54.8939 27.2583C55.8991 25.3696 56.77 23.4125 57.5001 21.4014L58.0347 23.2685L60 22.7063L58.5048 17.4796ZM2.13564 41.7981C2.20728 41.7981 2.27923 41.7906 2.34995 41.775L7.19222 40.7403L6.76483 38.741L3.67768 39.4014C4.3429 37.5253 5.14407 35.7003 6.07481 33.9408C7.70361 30.8545 9.59982 27.917 11.7417 25.1619C12.7436 23.8633 13.8315 22.5548 14.9741 21.2731C15.6185 20.5515 16.277 19.8427 16.9493 19.147C17.2488 18.837 17.5509 18.5296 17.8557 18.2247L16.4105 16.7796C15.3938 17.7957 14.4061 18.8404 13.4485 19.9124C12.2731 21.2296 11.1549 22.576 10.1259 23.9097C7.91181 26.758 5.9515 29.7948 4.26739 32.9853C3.5693 34.3059 2.94076 35.6621 2.38434 37.0484L1.99932 35.2461L0 35.6731L1.13624 40.989C1.1852 41.2178 1.3111 41.4229 1.49296 41.5702C1.67482 41.7174 1.90165 41.7979 2.13564 41.7981ZM21.1847 21.9016V38.1161C21.1847 38.9813 21.6701 40.1994 24.1312 41.0897C25.7247 41.6662 27.808 41.9841 30.0204 41.9841H30.0996C31.3777 41.9841 32.6531 41.8674 33.9099 41.6358C37.0962 41.0246 38.9437 39.7417 38.9437 38.1161V21.9016C38.9437 21.036 38.4028 19.8187 35.9413 18.9275C34.3473 18.3511 32.236 18.0332 30.0208 18.0332C27.8048 18.0332 25.7311 18.3511 24.1371 18.9275C21.676 19.8183 21.1847 21.0359 21.1847 21.9016ZM33.5274 39.6269C32.3712 39.8412 31.1972 39.946 30.0213 39.94C28.0356 39.94 26.2089 39.6654 24.8329 39.168C23.4868 38.6806 23.2289 38.1921 23.2289 38.1161V35.2632C23.5196 35.4171 23.8212 35.5497 24.1312 35.6598C25.7247 36.2367 27.8081 36.5541 30.0246 36.5541C32.2414 36.5541 34.3562 36.2367 35.9497 35.6598C36.2992 35.5334 36.5162 35.4003 36.8996 35.2623V38.1156C36.8996 38.3075 36.0721 39.1388 33.5274 39.6269ZM36.8997 32.6858C36.8997 32.7626 36.5922 33.2508 35.2465 33.738C33.87 34.2362 32.0067 34.51 30.0209 34.51C28.0356 34.51 26.2089 34.2362 24.8329 33.738C23.4868 33.2508 23.2289 32.7622 23.2289 32.6859V29.8705C23.5195 30.0248 23.8211 30.1575 24.1312 30.2676C25.7247 30.8444 27.8081 31.1619 30.0246 31.1619C32.2414 31.1619 34.3562 30.8444 35.9497 30.2675C36.2992 30.1412 36.5162 30.008 36.8996 29.8705L36.8997 32.6858ZM35.2465 28.3453C33.87 28.8435 32.0067 29.1173 30.0209 29.1173C28.0356 29.1173 26.2089 28.8435 24.8329 28.3453C23.4868 27.8584 23.2289 27.3699 23.2289 27.2939V24.4778C23.5197 24.6317 23.8213 24.7644 24.1312 24.8748C25.7252 25.4517 27.8085 25.7691 30.0246 25.7691C32.2406 25.7691 34.3558 25.4513 35.9497 24.8748C36.2992 24.7481 36.5162 24.6148 36.8996 24.4778V27.2939C36.8996 27.3699 36.5922 27.8584 35.2465 28.3453ZM24.7957 20.8498C26.1722 20.3512 28.0236 20.0774 30.0085 20.0774C31.993 20.0774 33.8449 20.3512 35.2214 20.8498C36.5666 21.337 36.8501 21.8252 36.8501 21.9016C36.8501 21.9771 36.5666 22.4653 35.2214 22.9527C33.8448 23.4511 31.9931 23.7251 30.0085 23.7251C28.0236 23.7251 26.1722 23.4504 24.7957 22.9527C23.4496 22.4653 23.1666 21.9771 23.1666 21.9016C23.1666 21.8252 23.4497 21.337 24.7957 20.8498Z" fill="#06D889"/>
</g>
</g>
<defs>
<clipPath id="clip0_0_184">
<rect width="60" height="60" fill="white"/>
</clipPath>
</defs>
</svg>
