<svg width="60" height="60" viewBox="0 0 60 60" fill="none" xmlns="http://www.w3.org/2000/svg">
<g id="SVG" clip-path="url(#clip0_0_144)">
<g id="Group">
<path id="Vector" d="M25.2666 33.04C24.8999 33.04 24.5999 33.34 24.5999 33.7067V46.3734H20.6666C20.2999 46.3734 19.9999 46.6734 19.9999 47.04V53.7867C18.6666 54.0934 17.6666 55.28 17.6666 56.7067C17.6666 58.36 19.0133 59.7067 20.6666 59.7067C22.3199 59.7067 23.6666 58.36 23.6666 56.7067C23.6666 55.28 22.6666 54.0934 21.3333 53.7867V47.7067H25.2666C25.6333 47.7067 25.9333 47.4067 25.9333 47.04V33.7067C25.9333 33.34 25.6333 33.04 25.2666 33.04ZM22.3333 56.7067C22.3333 57.1487 22.1577 57.5727 21.8451 57.8852C21.5326 58.1978 21.1086 58.3734 20.6666 58.3734C20.2246 58.3734 19.8007 58.1978 19.4881 57.8852C19.1755 57.5727 18.9999 57.1487 18.9999 56.7067C18.9999 56.2647 19.1755 55.8408 19.4881 55.5282C19.8007 55.2156 20.2246 55.04 20.6666 55.04C21.1086 55.04 21.5326 55.2156 21.8451 55.5282C22.1577 55.8408 22.3333 56.2647 22.3333 56.7067Z" fill="#06D889"/>
<path id="Vector_2" d="M12.0001 53.7867V43.7067H20.6668C21.0334 43.7067 21.3334 43.4067 21.3334 43.04V33.7067C21.3334 33.34 21.0334 33.04 20.6668 33.04C20.3001 33.04 20.0001 33.34 20.0001 33.7067V42.3734H5.92009C5.61342 41.04 4.42676 40.04 3.00009 40.04C1.34676 40.04 9.15527e-05 41.3867 9.15527e-05 43.04C9.15527e-05 44.6934 1.34676 46.04 3.00009 46.04C4.42676 46.04 5.61342 45.04 5.92009 43.7067H10.6668V53.7867C9.33342 54.0934 8.33342 55.28 8.33342 56.7067C8.33342 58.36 9.68009 59.7067 11.3334 59.7067C12.9868 59.7067 14.3334 58.36 14.3334 56.7067C14.3334 55.28 13.3334 54.0934 12.0001 53.7867ZM3.00009 44.7067C2.55806 44.7067 2.13414 44.5311 1.82158 44.2186C1.50902 43.906 1.33342 43.4821 1.33342 43.04C1.33342 42.598 1.50902 42.1741 1.82158 41.8615C2.13414 41.549 2.55806 41.3734 3.00009 41.3734C3.44212 41.3734 3.86604 41.549 4.1786 41.8615C4.49116 42.1741 4.66676 42.598 4.66676 43.04C4.66676 43.4821 4.49116 43.906 4.1786 44.2186C3.86604 44.5311 3.44212 44.7067 3.00009 44.7067ZM11.3334 58.3734C10.8914 58.3734 10.4675 58.1978 10.1549 57.8852C9.84235 57.5727 9.66676 57.1487 9.66676 56.7067C9.66676 56.2647 9.84235 55.8408 10.1549 55.5282C10.4675 55.2156 10.8914 55.04 11.3334 55.04C11.7755 55.04 12.1994 55.2156 12.5119 55.5282C12.8245 55.8408 13.0001 56.2647 13.0001 56.7067C13.0001 57.1487 12.8245 57.5727 12.5119 57.8852C12.1994 58.1978 11.7755 58.3734 11.3334 58.3734Z" fill="#06D889"/>
<path id="Vector_3" d="M57.0004 40.04C55.5738 40.04 54.3871 41.04 54.0804 42.3733H47.3338V38.3733H49.9071C55.4738 38.3733 60.0004 33.8867 60.0004 28.3733C60.0004 24.3 57.5271 20.8 53.9938 19.24C53.9204 9.68 45.9671 1 36.9004 1C31.0138 1 25.5204 4.04 22.4071 8.96667C20.8439 7.71712 18.9016 7.03756 16.9004 7.04C11.8271 7.04 8.03375 12.3867 8.00042 17.0933C3.72042 18.6667 0.667084 22.6733 0.667084 27.3733C0.667084 33.1533 5.28042 37.8933 11.1204 38.3333C11.1871 38.36 11.2604 38.3733 11.3338 38.3733H16.0271C16.3938 38.3733 16.6938 38.0733 16.6938 37.7067C16.6938 37.34 16.3938 37.04 16.0271 37.04H12.0004C6.48708 37.04 2.00042 32.7067 2.00042 27.3733C2.00042 22.04 6.48708 17.7067 12.0004 17.7067C12.3671 17.7067 12.6671 17.4067 12.6671 17.04C12.6671 16.6733 12.3671 16.3733 12.0004 16.3733C11.0871 16.3733 10.2071 16.4867 9.35375 16.6867C9.59375 11.96 13.4404 8.37333 16.9004 8.37333C18.8938 8.37333 20.7738 9.14667 22.1938 10.5533C22.4538 10.8133 22.8804 10.8133 23.1338 10.5533C23.2804 10.4067 23.3338 10.2067 23.3138 10.02C26.1471 5.28 31.3338 2.34 36.8938 2.34C45.1004 2.34 52.3138 10.1067 52.6471 18.7667C51.7738 18.52 50.8538 18.38 49.9004 18.38C49.5338 18.38 49.2338 18.68 49.2338 19.0467C49.2338 19.4133 49.5338 19.7133 49.9004 19.7133C54.7338 19.7133 58.6604 23.6 58.6604 28.38C58.6604 33.16 54.7271 37.0467 49.9004 37.0467H43.9938C43.6271 37.0467 43.3271 37.3467 43.3271 37.7133C43.3271 38.08 43.6271 38.38 43.9938 38.38H45.9938V43.0467C45.9938 43.4133 46.2938 43.7133 46.6604 43.7133H54.0738C54.3804 45.0467 55.5671 46.0467 56.9938 46.0467C58.6471 46.0467 59.9938 44.7 59.9938 43.0467C59.9938 41.3933 58.6471 40.0467 56.9938 40.0467L57.0004 40.04ZM57.0004 44.7067C56.5584 44.7067 56.1345 44.5311 55.8219 44.2185C55.5094 43.906 55.3338 43.482 55.3338 43.04C55.3338 42.598 55.5094 42.174 55.8219 41.8615C56.1345 41.5489 56.5584 41.3733 57.0004 41.3733C57.4425 41.3733 57.8664 41.5489 58.1789 41.8615C58.4915 42.174 58.6671 42.598 58.6671 43.04C58.6671 43.482 58.4915 43.906 58.1789 44.2185C57.8664 44.5311 57.4425 44.7067 57.0004 44.7067Z" fill="#06D889"/>
<path id="Vector_4" d="M30.6668 53.7867V33.7067C30.6668 33.34 30.3668 33.04 30.0001 33.04C29.6334 33.04 29.3334 33.34 29.3334 33.7067V53.7867C28.0001 54.0934 27.0001 55.28 27.0001 56.7067C27.0001 58.36 28.3468 59.7067 30.0001 59.7067C31.6534 59.7067 33.0001 58.36 33.0001 56.7067C33.0001 55.28 32.0001 54.0934 30.6668 53.7867ZM30.0001 58.3734C29.5581 58.3734 29.1341 58.1978 28.8216 57.8852C28.509 57.5727 28.3334 57.1487 28.3334 56.7067C28.3334 56.2647 28.509 55.8408 28.8216 55.5282C29.1341 55.2156 29.5581 55.04 30.0001 55.04C30.4421 55.04 30.8661 55.2156 31.1786 55.5282C31.4912 55.8408 31.6668 56.2647 31.6668 56.7067C31.6668 57.1487 31.4912 57.5727 31.1786 57.8852C30.8661 58.1978 30.4421 58.3734 30.0001 58.3734ZM40.0001 53.7867V49.7067C40.0001 49.4667 39.8734 49.2467 39.6668 49.1267L35.3334 46.6534V33.7067C35.3334 33.34 35.0334 33.04 34.6668 33.04C34.3001 33.04 34.0001 33.34 34.0001 33.7067V47.04C34.0001 47.28 34.1268 47.5 34.3334 47.62L38.6668 50.0934V53.7867C37.3334 54.0934 36.3334 55.28 36.3334 56.7067C36.3334 58.36 37.6801 59.7067 39.3334 59.7067C40.9868 59.7067 42.3334 58.36 42.3334 56.7067C42.3334 55.28 41.3334 54.0934 40.0001 53.7867ZM39.3334 58.3734C38.8914 58.3734 38.4675 58.1978 38.1549 57.8852C37.8424 57.5727 37.6668 57.1487 37.6668 56.7067C37.6668 56.2647 37.8424 55.8408 38.1549 55.5282C38.4675 55.2156 38.8914 55.04 39.3334 55.04C39.7755 55.04 40.1994 55.2156 40.5119 55.5282C40.8245 55.8408 41.0001 56.2647 41.0001 56.7067C41.0001 57.1487 40.8245 57.5727 40.5119 57.8852C40.1994 58.1978 39.7755 58.3734 39.3334 58.3734Z" fill="#06D889"/>
<path id="Vector_5" d="M49.3333 53.7867V49.5667C49.3333 49.3133 49.1866 49.08 48.9599 48.9667L39.9999 44.62V33.7067C39.9999 33.34 39.6999 33.04 39.3333 33.04C38.9666 33.04 38.6666 33.34 38.6666 33.7067V45.04C38.6666 45.2933 38.8133 45.5267 39.0399 45.64L47.9999 49.9867V53.7867C46.6666 54.0933 45.6666 55.28 45.6666 56.7067C45.6666 58.36 47.0133 59.7067 48.6666 59.7067C50.3199 59.7067 51.6666 58.36 51.6666 56.7067C51.6666 55.28 50.6666 54.0933 49.3333 53.7867ZM48.6666 58.3733C48.2246 58.3733 47.8007 58.1977 47.4881 57.8852C47.1755 57.5726 46.9999 57.1487 46.9999 56.7067C46.9999 56.2646 47.1755 55.8407 47.4881 55.5282C47.8007 55.2156 48.2246 55.04 48.6666 55.04C49.1086 55.04 49.5326 55.2156 49.8451 55.5282C50.1577 55.8407 50.3333 56.2646 50.3333 56.7067C50.3333 57.1487 50.1577 57.5726 49.8451 57.8852C49.5326 58.1977 49.1086 58.3733 48.6666 58.3733ZM20.6666 19.7067C21.7666 19.7067 22.6666 18.8067 22.6666 17.7067V15.7067C22.6666 14.6067 21.7666 13.7067 20.6666 13.7067C19.5666 13.7067 18.6666 14.6067 18.6666 15.7067V17.7067C18.6666 18.8067 19.5666 19.7067 20.6666 19.7067ZM19.9999 15.7067C19.9999 15.34 20.2999 15.04 20.6666 15.04C21.0333 15.04 21.3333 15.34 21.3333 15.7067V17.7067C21.3333 18.0733 21.0333 18.3733 20.6666 18.3733C20.2999 18.3733 19.9999 18.0733 19.9999 17.7067V15.7067ZM18.6666 25.04C18.6666 26.14 19.5666 27.04 20.6666 27.04C21.7666 27.04 22.6666 26.14 22.6666 25.04V23.04C22.6666 21.94 21.7666 21.04 20.6666 21.04C19.5666 21.04 18.6666 21.94 18.6666 23.04V25.04ZM19.9999 23.04C19.9999 22.6733 20.2999 22.3733 20.6666 22.3733C21.0333 22.3733 21.3333 22.6733 21.3333 23.04V25.04C21.3333 25.4067 21.0333 25.7067 20.6666 25.7067C20.2999 25.7067 19.9999 25.4067 19.9999 25.04V23.04ZM27.9999 23.04V25.04C27.9999 26.14 28.8999 27.04 29.9999 27.04C31.0999 27.04 31.9999 26.14 31.9999 25.04V23.04C31.9999 21.94 31.0999 21.04 29.9999 21.04C28.8999 21.04 27.9999 21.94 27.9999 23.04ZM30.6666 23.04V25.04C30.6666 25.4067 30.3666 25.7067 29.9999 25.7067C29.6333 25.7067 29.3333 25.4067 29.3333 25.04V23.04C29.3333 22.6733 29.6333 22.3733 29.9999 22.3733C30.3666 22.3733 30.6666 22.6733 30.6666 23.04ZM37.3333 23.04V25.04C37.3333 26.14 38.2333 27.04 39.3333 27.04C40.4333 27.04 41.3333 26.14 41.3333 25.04V23.04C41.3333 21.94 40.4333 21.04 39.3333 21.04C38.2333 21.04 37.3333 21.94 37.3333 23.04ZM39.9999 23.04V25.04C39.9999 25.4067 39.6999 25.7067 39.3333 25.7067C38.9666 25.7067 38.6666 25.4067 38.6666 25.04V23.04C38.6666 22.6733 38.9666 22.3733 39.3333 22.3733C39.6999 22.3733 39.9999 22.6733 39.9999 23.04ZM27.3333 13.7067C26.2333 13.7067 25.3333 14.6067 25.3333 15.7067V17.7067C25.3333 18.8067 26.2333 19.7067 27.3333 19.7067C28.4333 19.7067 29.3333 18.8067 29.3333 17.7067V15.7067C29.3333 14.6067 28.4333 13.7067 27.3333 13.7067ZM27.9999 17.7067C27.9999 18.0733 27.6999 18.3733 27.3333 18.3733C26.9666 18.3733 26.6666 18.0733 26.6666 17.7067V15.7067C26.6666 15.34 26.9666 15.04 27.3333 15.04C27.6999 15.04 27.9999 15.34 27.9999 15.7067V17.7067ZM37.3333 13.7067C36.2333 13.7067 35.3333 14.6067 35.3333 15.7067V17.7067C35.3333 18.8067 36.2333 19.7067 37.3333 19.7067C38.4333 19.7067 39.3333 18.8067 39.3333 17.7067V15.7067C39.3333 14.6067 38.4333 13.7067 37.3333 13.7067ZM37.9999 17.7067C37.9999 18.0733 37.6999 18.3733 37.3333 18.3733C36.9666 18.3733 36.6666 18.0733 36.6666 17.7067V15.7067C36.6666 15.34 36.9666 15.04 37.3333 15.04C37.6999 15.04 37.9999 15.34 37.9999 15.7067V17.7067ZM23.9999 19.7333C24.3666 19.7333 24.6666 19.4333 24.6666 19.0667V14.3733C24.6666 14.0067 24.3666 13.7067 23.9999 13.7067C23.6333 13.7067 23.3333 14.0067 23.3333 14.3733V19.0667C23.3333 19.4333 23.6333 19.7333 23.9999 19.7333ZM23.3333 26.3733C23.3333 26.74 23.6333 27.04 23.9999 27.04C24.3666 27.04 24.6666 26.74 24.6666 26.3733V21.68C24.6666 21.3133 24.3666 21.0133 23.9999 21.0133C23.6333 21.0133 23.3333 21.3133 23.3333 21.68V26.3733ZM27.3333 26.4V21.7067C27.3333 21.34 27.0333 21.04 26.6666 21.04C26.2999 21.04 25.9999 21.34 25.9999 21.7067V26.4C25.9999 26.7667 26.2999 27.0667 26.6666 27.0667C27.0333 27.0667 27.3333 26.7667 27.3333 26.4ZM33.9999 21.68C33.9999 21.3133 33.6999 21.0133 33.3333 21.0133C32.9666 21.0133 32.6666 21.3133 32.6666 21.68V26.3733C32.6666 26.74 32.9666 27.04 33.3333 27.04C33.6999 27.04 33.9999 26.74 33.9999 26.3733V21.68ZM35.3333 26.4C35.3333 26.7667 35.6333 27.0667 35.9999 27.0667C36.3666 27.0667 36.6666 26.7667 36.6666 26.4V21.7067C36.6666 21.34 36.3666 21.04 35.9999 21.04C35.6333 21.04 35.3333 21.34 35.3333 21.7067V26.4ZM31.3333 19.0667V14.3733C31.3333 14.0067 31.0333 13.7067 30.6666 13.7067C30.2999 13.7067 29.9999 14.0067 29.9999 14.3733V19.0667C29.9999 19.4333 30.2999 19.7333 30.6666 19.7333C31.0333 19.7333 31.3333 19.4333 31.3333 19.0667ZM41.3333 19.0667V14.3733C41.3333 14.0067 41.0333 13.7067 40.6666 13.7067C40.2999 13.7067 39.9999 14.0067 39.9999 14.3733V19.0667C39.9999 19.4333 40.2999 19.7333 40.6666 19.7333C41.0333 19.7333 41.3333 19.4333 41.3333 19.0667ZM33.3333 19.7333C33.6999 19.7333 33.9999 19.4333 33.9999 19.0667V14.3733C33.9999 14.0067 33.6999 13.7067 33.3333 13.7067C32.9666 13.7067 32.6666 14.0067 32.6666 14.3733V19.0667C32.6666 19.4333 32.9666 19.7333 33.3333 19.7333Z" fill="#06D889"/>
</g>
</g>
<defs>
<clipPath id="clip0_0_144">
<rect width="60" height="60" fill="white"/>
</clipPath>
</defs>
</svg>
