<svg width="35" height="39" viewBox="0 0 35 39" fill="none" xmlns="http://www.w3.org/2000/svg">
<g id="Black">
<path id="Vector" d="M1.38668 0.312C1.05734 0.468002 0.606673 0.866673 0.398671 1.19601L0 1.78535V19.5002V37.215L0.398671 37.8044C1.21335 39.0351 0.901342 39.0004 11.4748 39.0004C21.9789 39.0004 21.9096 39.0004 22.6722 37.9084C23.0536 37.3364 23.0536 37.2844 23.0536 30.8883V24.4402H22.4989H21.9269V28.6523V32.847L11.5788 32.899L1.21335 32.9337V19.5002V6.06672L11.5788 6.10139L21.9269 6.15339L21.9616 9.27342C21.9962 13.7801 21.9269 13.3468 22.5336 13.3468H23.0536V7.52274C23.0536 0.953339 23.0536 0.970676 21.7536 0.346668C21.0602 0.017334 20.6442 0 11.5094 0C2.79069 0 1.94135 0.0346642 1.38668 0.312ZM21.3202 1.38668C21.7362 1.61201 22.0136 2.58269 22.0136 3.84803V4.85338H11.6135H1.21335V3.38003C1.21335 1.00534 0.190669 1.21334 11.4574 1.21334C17.5588 1.21334 21.1122 1.28268 21.3202 1.38668ZM21.9789 35.2217C21.9616 36.5737 21.7362 37.3884 21.3202 37.6137C21.1122 37.7177 17.4375 37.787 11.4921 37.787C0.225336 37.787 1.21335 37.995 1.21335 35.6204V34.147H11.6135H21.9962L21.9789 35.2217Z" fill="#06D889"/>
<path id="Vector_2" d="M8.64957 2.704C8.49357 2.89466 8.47623 3.05067 8.6149 3.25867C8.7709 3.51867 9.20424 3.55334 11.5789 3.60534C14.2656 3.64001 14.3696 3.64001 14.4736 3.29334C14.7163 2.53066 14.3523 2.42666 11.5269 2.42666C9.32557 2.42666 8.84024 2.47866 8.64957 2.704Z" fill="#06D889"/>
<path id="Vector_3" d="M8.0949 35.4817C7.86956 35.6897 7.97356 36.3657 8.2509 36.4697C8.4069 36.5217 9.94958 36.5737 11.7003 36.5737C14.543 36.5737 14.907 36.5391 15.063 36.2791C15.167 36.0884 15.167 35.8631 15.063 35.6724C14.907 35.3951 14.5776 35.3604 11.5443 35.3604C9.70691 35.3604 8.1469 35.4124 8.0949 35.4817Z" fill="#06D889"/>
<path id="Vector_4" d="M9.62013 10.8508C9.37746 11.1108 9.1868 11.5268 9.1868 11.8042C9.1868 12.2722 8.80546 12.8268 8.47612 12.8268C8.37212 12.8268 8.00812 12.6362 7.66145 12.3935C6.67344 11.7175 6.32677 11.8215 5.07875 13.0522C3.83074 14.3175 3.70941 14.7682 4.42008 15.8082C4.66275 16.1549 4.85342 16.4842 4.85342 16.5362C4.85342 16.7962 4.22941 17.1602 3.79607 17.1602C3.48407 17.1602 3.12007 17.3162 2.86006 17.5936C2.46139 17.9749 2.42673 18.1482 2.42673 19.5002C2.42673 20.8523 2.46139 21.0256 2.86006 21.4069C3.10273 21.6669 3.48407 21.8403 3.76141 21.8403C4.78408 21.8403 5.02675 22.4469 4.42008 23.487C4.00408 24.1803 3.98674 24.2843 4.21208 24.8216C4.35075 25.1336 4.85342 25.7576 5.33876 26.2083C6.36143 27.1617 6.89877 27.2657 7.81745 26.6417C8.66679 26.0696 9.1868 26.295 9.1868 27.231C9.1868 27.4737 9.37746 27.8897 9.62013 28.1497C10.0015 28.5657 10.1401 28.6003 11.5268 28.6003C12.8442 28.6003 13.0522 28.5483 13.4162 28.2017C13.6242 27.9763 13.8668 27.491 13.9188 27.0923C14.0575 26.2083 14.5775 26.0003 15.3055 26.5203C15.5655 26.7283 16.0509 26.8843 16.3975 26.9017C16.9522 26.919 17.1602 26.7977 18.0442 25.879C19.2402 24.6483 19.3616 24.0763 18.6336 23.123C18.3909 22.811 18.2002 22.5163 18.2002 22.4643C18.2002 22.2043 18.8242 21.8403 19.2576 21.8403C19.5696 21.8403 19.9336 21.6843 20.1936 21.4069C20.5922 21.0256 20.6269 20.8523 20.6269 19.5002C20.6269 18.1829 20.5749 17.9749 20.2282 17.6109C20.0029 17.4029 19.5176 17.1602 19.1189 17.1082C18.2522 16.9696 18.0442 16.4842 18.5642 15.7562C18.7376 15.4962 18.9456 15.0455 18.9976 14.7335C19.1016 14.2482 19.0149 14.0922 17.9922 13.0869C16.7095 11.8042 16.2589 11.6828 15.2189 12.3935C14.4042 12.9482 14.0748 12.8095 13.9188 11.9082C13.8668 11.5095 13.6242 11.0242 13.4162 10.7988C13.0522 10.4522 12.8442 10.4002 11.5268 10.4002C10.1401 10.4002 10.0015 10.4348 9.62013 10.8508ZM12.7402 12.2548C12.9308 13.3815 12.9828 13.4509 13.9015 13.8322L14.8029 14.2135L15.4442 13.6935C15.8082 13.4162 16.1722 13.1735 16.2415 13.1735C16.3282 13.1735 16.7269 13.5202 17.1429 13.9362L17.9056 14.7162L17.3335 15.4269L16.7789 16.1376L17.2122 17.1256C17.4549 17.6629 17.7669 18.1309 17.8882 18.1482C18.0096 18.1656 18.4082 18.2176 18.7722 18.2869L19.4136 18.3909V19.4829C19.4136 20.6789 19.3096 20.8003 18.1656 20.8003C17.7669 20.8003 17.6455 20.9389 17.2642 21.7709L16.8135 22.7416L17.3335 23.4003C17.6282 23.7643 17.8535 24.1283 17.8535 24.215C17.8535 24.3016 17.5242 24.7003 17.1082 25.099L16.3629 25.827L15.6349 25.2896C14.9242 24.7696 14.8722 24.7523 14.3348 25.0123C14.0402 25.151 13.6068 25.3243 13.3988 25.3763C13.0002 25.4976 12.9308 25.6536 12.7402 26.7283L12.6362 27.387H11.5268H10.4175L10.2961 26.503C10.1748 25.6363 10.1575 25.619 9.22146 25.203L8.28545 24.787L7.62678 25.307C7.26278 25.6016 6.89877 25.827 6.82944 25.827C6.74277 25.827 6.36143 25.4976 5.94543 25.099L5.21742 24.3883L5.75476 23.6256L6.27477 22.863L5.84143 21.8749C5.61609 21.3376 5.32142 20.8696 5.18275 20.8523C5.04409 20.8349 4.64542 20.7829 4.29875 20.7136L3.64007 20.6096V19.5176C3.64007 18.3216 3.74407 18.2002 4.90542 18.2002C5.32142 18.2002 5.44276 18.0616 5.80676 17.2122L6.2401 16.2242L5.72009 15.5829C5.44276 15.2189 5.20009 14.8549 5.20009 14.7855C5.20009 14.6989 5.52943 14.3002 5.94543 13.9015L6.69077 13.1735L7.41878 13.7109L8.16412 14.2482L9.15213 13.8322C9.68947 13.5895 10.1575 13.2949 10.1748 13.1562C10.1921 13.0175 10.2441 12.6188 10.3135 12.2548L10.4175 11.6135H11.5268H12.6362L12.7402 12.2548Z" fill="#06D889"/>
<path id="Vector_5" d="M9.96681 16.1029C6.36144 17.7669 7.55745 23.2269 11.5268 23.2269C14.8895 23.2269 16.5362 19.1016 14.0922 16.7789C13.0348 15.7735 11.3015 15.4789 9.96681 16.1029ZM12.8615 17.2815C13.6068 17.7322 14.0748 18.5815 14.0748 19.5002C14.0748 20.9562 13.0175 22.0136 11.5788 22.0136C9.62014 22.0136 8.37213 19.8816 9.36014 18.2349C10.0708 17.0735 11.7175 16.6229 12.8615 17.2815Z" fill="#06D889"/>
<path id="Vector_6" d="M22.2908 14.6989C22.0828 14.7509 22.0135 14.8895 22.0482 15.2189L22.1002 15.6869H26.1735H30.2469L30.2989 15.2016C30.3509 14.8549 30.2816 14.7335 30.0389 14.7162C29.2762 14.6642 22.5682 14.6469 22.2908 14.6989Z" fill="#06D889"/>
<path id="Vector_7" d="M23.2615 18.8415L23.3135 19.3269L28.5309 19.3789C34.0256 19.4135 34.3203 19.3789 34.043 18.6509C33.9563 18.4082 33.367 18.3735 28.5656 18.3735H23.2095L23.2615 18.8415Z" fill="#06D889"/>
<path id="Vector_8" d="M22.0308 22.3255C21.6842 22.9842 21.9788 23.0362 26.0522 23.0709C30.2469 23.0882 30.6802 23.0189 30.3162 22.3429C30.1602 22.0309 29.9002 22.0135 26.1735 22.0135C22.5162 22.0135 22.1868 22.0309 22.0308 22.3255Z" fill="#06D889"/>
</g>
</svg>
