<svg width="61" height="60" viewBox="0 0 61 60" fill="none" xmlns="http://www.w3.org/2000/svg">
<g id="SVG" clip-path="url(#clip0_0_203)">
<path id="Vector" d="M58.1385 3.41467H10.7239C9.45559 3.41467 8.38242 4.43906 8.38242 5.75614V11.3171H2.82144C1.50437 11.3171 0.47998 12.3415 0.47998 13.6586V54.2439C0.47998 55.5122 1.50437 56.5854 2.82144 56.5854H50.2361C51.5044 56.5854 52.5776 55.561 52.5776 54.2439V48.683H58.1385C59.4068 48.683 60.48 47.6586 60.48 46.3415V5.75614C60.48 4.43906 59.4556 3.41467 58.1385 3.41467ZM10.7239 5.36589H58.1385C58.3337 5.36589 58.5288 5.51223 58.5288 5.75614V12.4878H10.3336V5.75614C10.3336 5.51223 10.5288 5.36589 10.7239 5.36589ZM2.82144 13.2683H8.38242V20.3903H2.4312V13.6586C2.4312 13.4635 2.57754 13.2683 2.82144 13.2683ZM50.6263 54.2439C50.6263 54.4391 50.48 54.6342 50.2361 54.6342H2.82144C2.62632 54.6342 2.4312 54.4878 2.4312 54.2439V22.3415H8.38242V46.3415C8.38242 47.6098 9.40681 48.683 10.7239 48.683H50.6263V54.2439ZM58.1385 46.7317H10.7239C10.5288 46.7317 10.3336 46.5854 10.3336 46.3415V14.4391H58.5288V46.3415C58.5288 46.5366 58.3824 46.7317 58.1385 46.7317Z" fill="#06D889"/>
<path id="Vector_2" d="M18.5776 9.70732H14.9678C14.4312 9.70732 13.9922 9.2683 13.9922 8.73171C13.9922 8.19513 14.4312 7.7561 14.9678 7.7561H18.5776C19.1142 7.7561 19.5532 8.19513 19.5532 8.73171C19.5532 9.2683 19.1142 9.70732 18.5776 9.70732ZM26.8215 9.70732H23.2117C22.6751 9.70732 22.2361 9.2683 22.2361 8.73171C22.2361 8.19513 22.6751 7.7561 23.2117 7.7561H26.8215C27.3581 7.7561 27.7971 8.19513 27.7971 8.73171C27.7971 9.2683 27.3581 9.70732 26.8215 9.70732Z" fill="#06D889"/>
<path id="Vector_3" d="M19.4556 30.683L28.7239 35.4634V33.6098L21.6019 30.0488L28.7239 26.4878V24.6342L19.4556 29.3659V30.683ZM30.7727 36.0488H32.5288L37.9922 21.9025H36.1873L30.7727 36.0488ZM39.9922 24.6342V26.4878L47.1629 30.0488L39.9922 33.6098V35.4634L49.2605 30.683V29.3659L39.9922 24.6342Z" fill="#06D889"/>
</g>
<defs>
<clipPath id="clip0_0_203">
<rect width="60" height="60" fill="white" transform="translate(0.47998)"/>
</clipPath>
</defs>
</svg>
