<svg width="60" height="60" viewBox="0 0 60 60" fill="none" xmlns="http://www.w3.org/2000/svg">
<g id="SVG">
<g id="Black">
<path id="Vector" d="M26.3456 1.60071V3.20138H18.8403H11.3349L10.3389 2.13427C8.38256 0.0356083 5.35907 1.10272 5.35907 3.91279C5.35907 6.26044 7.95571 7.57655 9.91209 6.1893C10.3389 5.90474 10.6946 5.40675 10.6946 5.12218C10.6946 4.69534 11.655 4.6242 16.3859 4.6242C19.5161 4.6242 22.0772 4.69534 22.0772 4.76648C22.0772 4.87319 21.0812 5.47789 19.8718 6.11816C16.6349 7.82554 12.9711 11.596 11.1571 15.1175C9.84095 17.7141 9.44967 18.7457 8.77383 21.7692C8.59598 22.5873 8.34699 22.7651 7.4933 22.7651H6.42618V25.4329V28.1007H9.27182H12.1175V25.4329C12.1175 22.8007 12.1175 22.7651 11.1926 22.7651C10.3034 22.7651 10.2678 22.694 10.4812 21.3423C11.4416 15.2598 16.9195 8.7148 23.0732 6.22487C26.0967 5.01547 26.3456 5.05104 26.3456 6.75843V8.18125H30.4363H34.5269V6.58057C34.5269 4.65977 34.7047 4.6242 38.2262 5.86917C44.202 7.96782 49.0396 12.8765 51.1027 18.9591C52.2054 22.196 52.2054 22.7651 51.0671 22.7651C50.2134 22.7651 50.1779 22.8363 50.1779 25.4329V28.1007H53.0235H55.8691V25.4685V22.8007L54.7665 22.694C53.6993 22.5873 53.6282 22.4806 53.0235 20.0618C51.4228 13.837 47.5812 8.99937 41.5342 5.65574L39.6846 4.6242H44.949H50.249L51.245 5.69131C53.1302 7.71883 56.2248 6.61614 56.2248 3.94836C56.2248 1.17386 53.2014 0.0711784 51.245 2.13427L50.249 3.20138H42.3879H34.5269V1.60071V3.8147e-05H30.4363H26.3456V1.60071ZM33.104 4.09064V6.75843H30.4363H27.7685V4.09064V1.42286H30.4363H33.104V4.09064ZM9.27182 3.02353C9.87652 3.77051 9.20068 5.33561 8.27585 5.33561C7.4933 5.33561 6.78189 4.65977 6.78189 3.91279C6.78189 2.59668 8.4537 2.02755 9.27182 3.02353ZM54.5886 3.27252C54.8732 3.73494 54.8732 4.09064 54.5886 4.51749C54.0195 5.44232 52.7745 5.51346 52.3121 4.65977C51.4228 2.98796 53.5926 1.70742 54.5886 3.27252ZM10.6946 25.4329C10.6946 26.6423 10.6591 26.6779 9.34296 26.6779C7.99128 26.6779 7.99128 26.6779 8.13357 25.4329C8.27585 24.2947 8.38256 24.188 9.48524 24.188C10.6235 24.188 10.6946 24.2591 10.6946 25.4329ZM54.4463 25.4329C54.4463 26.6067 54.3752 26.6779 53.2014 26.6779C52.0275 26.6779 51.9564 26.6067 51.9564 25.4329C51.9564 24.2591 52.0275 24.188 53.2014 24.188C54.3752 24.188 54.4463 24.2591 54.4463 25.4329Z" fill="#06D889"/>
<path id="Vector_2" d="M23.8202 20.8443C20.9035 26.8201 18.5202 31.8356 18.5202 31.9423C18.5202 32.0846 19.5162 33.0805 20.7612 34.1832C23.0733 36.2463 24.7806 39.0919 25.1719 41.4752C25.3142 42.4356 25.2431 42.6846 24.7806 42.6846C24.3538 42.6846 24.2115 43.0047 24.2115 43.894C24.2115 44.8899 24.0692 45.1389 23.3222 45.3168C22.433 45.5302 22.433 45.6013 22.433 49.2651V53H30.6142H38.7954V49.3007C38.7954 45.6725 38.7954 45.6013 37.9061 45.3879C37.1592 45.2101 37.0169 44.9611 37.0169 43.9295C37.0169 43.0758 36.839 42.6846 36.4833 42.6846C35.7719 42.6846 35.8075 42.0087 36.6612 39.6966C37.6216 37.2067 39.08 35.2148 41.2142 33.5074L42.9571 32.1557L38.5464 23.0852C36.1276 18.1409 33.7088 13.1255 33.2108 11.9873C32.2504 9.95973 32.2504 9.95973 30.6853 9.95973H29.1558L23.8202 20.8443ZM29.9028 18.9591V25.504L29.0135 25.9664C27.1994 26.9268 27.1283 29.8436 28.9068 31.0886C30.1873 31.9779 31.6102 31.8 32.8196 30.5906C33.7444 29.6302 33.8867 29.3101 33.7088 28.1718C33.4954 26.998 32.6417 25.8597 31.6813 25.5396C31.4323 25.4685 31.3612 23.0497 31.3967 18.8523L31.5035 12.2718L35.7008 20.8087C38.0128 25.504 40.1471 29.8792 40.4672 30.5195L41.0008 31.6577L39.4001 33.0805C37.337 34.8946 35.8431 37.2779 34.8471 40.2658L34.0645 42.6846H30.6142H27.1994L26.5592 40.6215C25.5988 37.5624 24.2826 35.3926 22.184 33.4007L20.2988 31.6221L23.8914 24.2591C25.8833 20.204 27.9464 15.9 28.5155 14.655C29.0847 13.4456 29.6182 12.4497 29.7249 12.4497C29.8316 12.4497 29.9028 15.3664 29.9028 18.9591ZM32.0726 27.994C32.286 28.5631 32.1793 29.0255 31.7169 29.5946C31.1477 30.306 30.9343 30.3416 30.1162 29.9503C29.1914 29.5591 28.978 28.7409 29.4048 27.5671C29.7605 26.6779 31.7169 26.998 32.0726 27.994ZM35.5941 44.6054C35.5941 45.0322 34.7759 45.1389 31.4323 45.2456C26.4169 45.3879 25.6343 45.2812 25.6343 44.6054C25.6343 44.2141 26.5236 44.1074 30.6142 44.1074C34.7048 44.1074 35.5941 44.2141 35.5941 44.6054ZM37.3726 49.2651V51.5772H30.6142H23.8558V49.2651V46.953H30.6142H37.3726V49.2651Z" fill="#06D889"/>
</g>
</g>
</svg>
